<svg xmlns="http://www.w3.org/2000/svg" xmlns:xlink="http://www.w3.org/1999/xlink" width="705.562" height="578.823" viewBox="0 0 705.562 578.823">
  <defs>
    <clipPath id="clip-path">
      <path id="Tracé_13026" data-name="Tracé 13026" d="M3204.2,718.293s147.478,33.952,323.6,7.427,207.955-200.528,207.955-200.528l9.549-249.334-127.319-93.368-286.469-12.732L3262,157.027s-89.626,26.525-93.87,35.013-87,132.624-87,135.807-41.379,153.844-41.379,153.844l11.671,119.892,67.9,71.087Z" transform="translate(-2232)" fill="#fff"/>
    </clipPath>
  </defs>
  <g id="Groupe_de_masques_74" data-name="Groupe de masques 74" transform="translate(-807.749 -157.027)" clip-path="url(#clip-path)">
    <g id="Groupe_61763" data-name="Groupe 61763" transform="translate(-863.258 3921.5)">
      <g id="Groupe_61702" data-name="Groupe 61702" transform="translate(2049.353 -3616.034)">
        <rect id="Rectangle_9288" data-name="Rectangle 9288" width="14.996" height="1.634" transform="translate(0 111.262) rotate(-68.999)" fill="#17305e"/>
        <rect id="Rectangle_9289" data-name="Rectangle 9289" width="6.073" height="1.634" transform="translate(7.195 92.517) rotate(-68.998)" fill="#17305e"/>
        <path id="Tracé_12833" data-name="Tracé 12833" d="M1348.974,588.73l-1.525-.585,27.635-66.578,1.525.585Z" transform="translate(-1330.297 -521.567)" fill="#17305e"/>
      </g>
      <path id="Tracé_12834" data-name="Tracé 12834" d="M1362.593,491.011a38.192,38.192,0,0,1-33.62-56.293l14.376,7.756a21.573,21.573,0,0,0-2.6,10.355,21.872,21.872,0,0,0,21.847,21.848Z" transform="translate(734.191 -4080.544)" fill="#00a3a6"/>
      <path id="Tracé_12835" data-name="Tracé 12835" d="M1451.109,564.872l-3.116-16.035a21.589,21.589,0,0,0,2.434-.623l4.967,15.561A37.885,37.885,0,0,1,1451.109,564.872Z" transform="translate(653.001 -4155.108)" fill="#00a3a6"/>
      <path id="Tracé_12836" data-name="Tracé 12836" d="M1479.095,1354.049l-27.185-30.475a126.063,126.063,0,0,0,14.764-15.63l31.977,25.4A167.086,167.086,0,0,1,1479.095,1354.049Z" transform="translate(650.428 -4654.229)" fill="#e48b25" opacity="0.1"/>
      <path id="Tracé_12837" data-name="Tracé 12837" d="M1551.475,1289.072l-34.444-21.937c1.075-1.689,2.118-3.416,3.1-5.134l35.46,20.252C1554.286,1284.54,1552.9,1286.833,1551.475,1289.072Z" transform="translate(607.645 -4624.046)" fill="#e48b25" opacity="0.1"/>
      <path id="Tracé_12838" data-name="Tracé 12838" d="M1568.249,1121.182l-36.135-19.024a123.489,123.489,0,0,0,14.3-58.115,127.108,127.108,0,0,0-.866-14.811l40.556-4.779a168.031,168.031,0,0,1,1.147,19.59A166.2,166.2,0,0,1,1568.249,1121.182Z" transform="translate(597.736 -4467.983)" fill="#e48b25" opacity="0.1"/>
      <path id="Tracé_12839" data-name="Tracé 12839" d="M1568.19,1003.27q-.237-1.475-.509-2.938l40.151-7.453q.361,1.947.677,3.909Z" transform="translate(574.37 -4447.241)" fill="#e48b25" opacity="0.22"/>
      <path id="Tracé_12840" data-name="Tracé 12840" d="M1344.218,723.154a124.8,124.8,0,0,0-109.071-83.015l2.823-40.74A165.619,165.619,0,0,1,1382.722,709.55Z" transform="translate(792.835 -4188.735)" fill="#e48b25" opacity="0.22"/>
      <path id="Tracé_12841" data-name="Tracé 12841" d="M1190.268,639.182l-1.753-40.8c3.549-.153,7.157-.194,10.7-.118l-.863,40.827C1195.674,639.037,1192.946,639.067,1190.268,639.182Z" transform="translate(823.471 -4187.965)" fill="#e48b25" opacity="0.4"/>
      <path id="Tracé_12842" data-name="Tracé 12842" d="M1030.724,659.4l-16.518-37.346a165.192,165.192,0,0,1,26.139-9.023l10.037,39.584A124.243,124.243,0,0,0,1030.724,659.4Z" transform="translate(937.987 -4197.692)" fill="#e48b25" opacity="0.4"/>
      <path id="Tracé_12843" data-name="Tracé 12843" d="M981.393,687.943l-21.081-34.975c4.5-2.715,9.191-5.242,13.931-7.514L991.89,682.28C988.319,683.992,984.787,685.9,981.393,687.943Z" transform="translate(973.394 -4218.992)" fill="#e48b25" opacity="0.4"/>
      <path id="Tracé_12844" data-name="Tracé 12844" d="M991.041,718.338" transform="translate(953.206 -4266.875)" fill="none" stroke="#ffccd6" stroke-width="119.048"/>
      <path id="Tracé_12845" data-name="Tracé 12845" d="M871.81,739.908l-31.153-26.4a166.647,166.647,0,0,1,32.017-29.093l23.3,33.534A125.789,125.789,0,0,0,871.81,739.908Z" transform="translate(1052.004 -4244.586)" fill="#e48b25" opacity="0.4"/>
      <path id="Tracé_12846" data-name="Tracé 12846" d="M789.5,934.7l-38.755-12.871q.634-1.91,1.313-3.8l38.433,13.8Q789.982,933.261,789.5,934.7Z" transform="translate(1111.072 -4398.067)" fill="#e48b25" opacity="0.4"/>
      <path id="Tracé_12847" data-name="Tracé 12847" d="M891.99,1156.519c-91.421,0-165.8-74.376-165.8-165.8a165.929,165.929,0,0,1,6.889-47.431l39.135,11.666A125.076,125.076,0,0,0,891.99,1115.682a123.65,123.65,0,0,0,77.368-26.824l25.307,32.05A164.108,164.108,0,0,1,891.99,1156.519Z" transform="translate(1127.203 -4414.662)" fill="#e48b25" opacity="0.4"/>
      <g id="Groupe_61703" data-name="Groupe 61703" transform="translate(1872.998 -3570.135)">
        <path id="Tracé_12848" data-name="Tracé 12848" d="M1319.944,671.741q-1.3-.368-2.609-.714l.416-1.579q1.324.348,2.639.723Z" transform="translate(-1134.158 -664.619)" fill="#fff"/>
        <path id="Tracé_12849" data-name="Tracé 12849" d="M785.292,825.539a147.734,147.734,0,0,1-1.956-23.971c0-80.613,65.583-146.2,146.195-146.2a147.343,147.343,0,0,1,28.322,2.741l-.315,1.6a145.731,145.731,0,0,0-28.008-2.711c-79.711,0-144.561,64.851-144.561,144.562a146.077,146.077,0,0,0,1.934,23.7Z" transform="translate(-783.336 -655.373)" fill="#fff"/>
        <path id="Tracé_12850" data-name="Tracé 12850" d="M839.667,1291.854c-.714-1.191-1.423-2.413-2.108-3.635l1.424-.8c.677,1.208,1.378,2.417,2.084,3.593Z" transform="translate(-818.959 -1070.61)" fill="#fff"/>
        <path id="Tracé_12851" data-name="Tracé 12851" d="M939.81,1381.457a146.841,146.841,0,0,1-78.72-56.218l1.334-.941a145.211,145.211,0,0,0,77.841,55.591Z" transform="translate(-834.418 -1094.837)" fill="#fff"/>
        <path id="Tracé_12852" data-name="Tracé 12852" d="M1500.453,1383.605l-1.124-1.185q1.389-1.316,2.742-2.668l1.154,1.156Q1501.857,1382.275,1500.453,1383.605Z" transform="translate(-1253.723 -1131.27)" fill="#fff"/>
        <path id="Tracé_12853" data-name="Tracé 12853" d="M1525.466,1039.052l-1.219-1.086a144.64,144.64,0,0,0,17.341-168.289l1.415-.817a146.274,146.274,0,0,1-17.537,170.193Z" transform="translate(-1270.094 -795.627)" fill="#fff"/>
        <path id="Tracé_12854" data-name="Tracé 12854" d="M1565.511,854.235q-.575-.925-1.162-1.84l1.374-.882q.595.925,1.175,1.859Z" transform="translate(-1296.439 -784.231)" fill="#fff"/>
        <path id="Tracé_12855" data-name="Tracé 12855" d="M1466.042,752.512a144.723,144.723,0,0,0-39.479-34.947l.842-1.4a146.324,146.324,0,0,1,39.923,35.339Z" transform="translate(-1205.919 -695.312)" fill="#fff"/>
      </g>
      <g id="Groupe_61704" data-name="Groupe 61704" transform="translate(1838.76 -3401.191)">
        <rect id="Rectangle_9290" data-name="Rectangle 9290" width="67.812" height="1.633" transform="matrix(0.966, -0.257, 0.257, 0.966, 0, 24.643)" fill="#17305e"/>
        <rect id="Rectangle_9291" data-name="Rectangle 9291" width="2.747" height="1.633" transform="matrix(0.966, -0.259, 0.259, 0.966, 69.354, 6.171)" fill="#17305e"/>
        <rect id="Rectangle_9292" data-name="Rectangle 9292" width="15.712" height="1.633" transform="translate(77.207 4.067) rotate(-15.001)" fill="#17305e"/>
      </g>
      <g id="Groupe_61705" data-name="Groupe 61705" transform="translate(2091.705 -3405.243)">
        <rect id="Rectangle_9293" data-name="Rectangle 9293" width="1.633" height="4.208" transform="matrix(0.259, -0.966, 0.966, 0.259, 0, 1.578)" fill="#17305e"/>
        <rect id="Rectangle_9294" data-name="Rectangle 9294" width="1.633" height="18.933" transform="translate(18.229 6.462) rotate(-75)" fill="#17305e"/>
        <rect id="Rectangle_9295" data-name="Rectangle 9295" width="1.633" height="68.445" transform="matrix(0.259, -0.966, 0.966, 0.259, 43.107, 13.128)" fill="#17305e"/>
        <rect id="Rectangle_9296" data-name="Rectangle 9296" width="1.633" height="3.476" transform="translate(119.652 33.639) rotate(-74.997)" fill="#17305e"/>
      </g>
      <g id="Groupe_61706" data-name="Groupe 61706" transform="translate(2068.943 -3537.96)">
        <rect id="Rectangle_9297" data-name="Rectangle 9297" width="2.922" height="1.633" transform="matrix(0.891, -0.454, 0.454, 0.891, 0, 87.758)" fill="#17305e"/>
        <rect id="Rectangle_9298" data-name="Rectangle 9298" width="36.065" height="1.633" transform="matrix(0.891, -0.454, 0.454, 0.891, 12.857, 81.212)" fill="#17305e"/>
        <rect id="Rectangle_9299" data-name="Rectangle 9299" width="64.411" height="1.633" transform="matrix(0.891, -0.454, 0.454, 0.891, 51.59, 61.479)" fill="#17305e"/>
        <rect id="Rectangle_9300" data-name="Rectangle 9300" width="6.805" height="1.633" transform="translate(112.935 30.212) rotate(-27.016)" fill="#17305e"/>
        <rect id="Rectangle_9301" data-name="Rectangle 9301" width="39.47" height="1.633" transform="matrix(0.891, -0.454, 0.454, 0.891, 137.052, 17.928)" fill="#17305e"/>
      </g>
      <g id="Groupe_61707" data-name="Groupe 61707" transform="translate(1929.005 -3657.198)">
        <rect id="Rectangle_9302" data-name="Rectangle 9302" width="1.634" height="3.378" transform="translate(56.269 147.176) rotate(-21.003)" fill="#17305e"/>
        <rect id="Rectangle_9303" data-name="Rectangle 9303" width="1.634" height="146.503" transform="translate(0 0.585) rotate(-20.999)" fill="#17305e"/>
      </g>
      <g id="Groupe_61708" data-name="Groupe 61708" transform="translate(1840.057 -3515.758)">
        <rect id="Rectangle_9304" data-name="Rectangle 9304" width="1.633" height="86.081" transform="matrix(0.454, -0.891, 0.891, 0.454, 0, 1.455)" fill="#17305e"/>
        <rect id="Rectangle_9305" data-name="Rectangle 9305" width="1.633" height="18.819" transform="translate(94.414 49.565) rotate(-62.997)" fill="#17305e"/>
        <rect id="Rectangle_9306" data-name="Rectangle 9306" width="1.633" height="3.866" transform="matrix(0.454, -0.891, 0.891, 0.454, 121.703, 63.47)" fill="#17305e"/>
      </g>
      <circle id="Ellipse_2424" data-name="Ellipse 2424" cx="45.12" cy="45.12" r="45.12" transform="translate(1722.621 -3546.858) rotate(-45)" fill="#00a3a6" opacity="0.3"/>
      <g id="Groupe_61709" data-name="Groupe 61709" transform="translate(1722.934 -3610.354)" opacity="0.3">
        <path id="Tracé_12856" data-name="Tracé 12856" d="M693.369,643.495c-.547-1.275-1.146-2.55-1.781-3.79l1.454-.745c.652,1.273,1.267,2.582,1.828,3.891Z" transform="translate(-572.996 -604.371)" fill="#00a3a6"/>
        <path id="Tracé_12857" data-name="Tracé 12857" d="M540.622,565.017a61.952,61.952,0,0,0-70.342-21.795l-.54-1.541a63.583,63.583,0,0,1,72.2,22.367Z" transform="translate(-427.248 -538.125)" fill="#00a3a6"/>
        <path id="Tracé_12858" data-name="Tracé 12858" d="M409.22,580.14l-1.085-1.222c1.2-1.062,2.443-2.088,3.7-3.047l.989,1.3C411.6,578.105,410.386,579.1,409.22,580.14Z" transform="translate(-386.775 -562.923)" fill="#00a3a6"/>
        <path id="Tracé_12859" data-name="Tracé 12859" d="M409.363,716.378a63.5,63.5,0,0,1-51.8-100.228l1.332.946a61.866,61.866,0,0,0,94.61,79.128l1.165,1.144A63.029,63.029,0,0,1,409.363,716.378Z" transform="translate(-345.866 -589.385)" fill="#00a3a6"/>
      </g>
      <circle id="Ellipse_2425" data-name="Ellipse 2425" cx="38.354" cy="38.354" r="38.354" transform="translate(1861.587 -3704.804) rotate(-45)" fill="#00a3a6" opacity="0.3"/>
      <circle id="Ellipse_2426" data-name="Ellipse 2426" cx="43.24" cy="43.24" r="43.24" transform="translate(2197.63 -3560.941) rotate(-45)" fill="#00a3a6" opacity="0.3"/>
      <circle id="Ellipse_2427" data-name="Ellipse 2427" cx="34.34" cy="34.34" r="34.34" transform="translate(2234.685 -3382.528) rotate(-45)" fill="#00a3a6" opacity="0.3"/>
      <g id="Groupe_61710" data-name="Groupe 61710" transform="translate(1867.902 -3752.873)" opacity="0.3">
        <path id="Tracé_12860" data-name="Tracé 12860" d="M1007.3,350.195c.712-.765,1.408-1.565,2.069-2.381l.956.775c-.679.836-1.394,1.659-2.124,2.443Z" transform="translate(-925.381 -270.577)" fill="#00a3a6"/>
        <path id="Tracé_12861" data-name="Tracé 12861" d="M1013.436,222.708a46.661,46.661,0,0,0-6.384-55.1l.9-.841a47.891,47.891,0,0,1,6.555,56.551Z" transform="translate(-925.215 -151.636)" fill="#00a3a6"/>
        <path id="Tracé_12862" data-name="Tracé 12862" d="M964.448,136.473l.512-1.119c1.1.5,2.182,1.048,3.226,1.625l-.595,1.077C966.575,137.494,965.517,136.962,964.448,136.473Z" transform="translate(-897.226 -130.997)" fill="#00a3a6"/>
        <path id="Tracé_12863" data-name="Tracé 12863" d="M772.555,189.814a47.831,47.831,0,0,1,53.3-66.187l-.247,1.206A46.6,46.6,0,0,0,799.872,214.1l-.434,1.151A47.476,47.476,0,0,1,772.555,189.814Z" transform="translate(-768.48 -122.652)" fill="#00a3a6"/>
      </g>
      <g id="Groupe_61711" data-name="Groupe 61711" transform="translate(2235.905 -3430.182)">
        <path id="Tracé_12864" data-name="Tracé 12864" d="M1989.24,1163.945l-.123-1.629a45.884,45.884,0,0,0,13.976-88.175l.622-1.511a47.518,47.518,0,0,1-14.475,91.315Z" transform="translate(-1938.407 -1069.452)" fill="#e48b25"/>
        <path id="Tracé_12865" data-name="Tracé 12865" d="M2016.578,1069.373q-.684-.216-1.376-.41l.444-1.573q.717.2,1.425.426Z" transform="translate(-1955.544 -1066.01)" fill="#e48b25"/>
        <path id="Tracé_12866" data-name="Tracé 12866" d="M1944.543,1066.073l-.409-1.581a47.427,47.427,0,0,1,5.848-1.127l.207,1.62A45.7,45.7,0,0,0,1944.543,1066.073Z" transform="translate(-1908.854 -1063.365)" fill="#e48b25"/>
        <path id="Tracé_12867" data-name="Tracé 12867" d="M1842.91,1111.983l-1.624-.179a47.56,47.56,0,0,1,28.514-38.416l.644,1.5A45.924,45.924,0,0,0,1842.91,1111.983Z" transform="translate(-1841.286 -1069.95)" fill="#e48b25"/>
      </g>
      <g id="Groupe_61712" data-name="Groupe 61712" transform="translate(2246.986 -3423.988)">
        <path id="Tracé_12868" data-name="Tracé 12868" d="M2028.422,1290.312l-.7-1.477a39.274,39.274,0,0,0,11.4-8.129l1.169,1.141A40.888,40.888,0,0,1,2028.422,1290.312Z" transform="translate(-1974.852 -1212.346)" fill="#e48b25"/>
        <path id="Tracé_12869" data-name="Tracé 12869" d="M2073.244,1265.543l-1.325-.955q.567-.785,1.094-1.6l1.371.888Q2073.834,1264.725,2073.244,1265.543Z" transform="translate(-2003.886 -1200.706)" fill="#e48b25"/>
        <path id="Tracé_12870" data-name="Tracé 12870" d="M1955.669,1141.374l-1.446-.761a39.3,39.3,0,0,0-64.636-43.835l-1.239-1.064a40.934,40.934,0,0,1,67.321,45.66Z" transform="translate(-1883.285 -1081.422)" fill="#e48b25"/>
        <path id="Tracé_12871" data-name="Tracé 12871" d="M1875.03,1141.966l-1.441-.769q.492-.924,1.031-1.819l1.4.841Q1875.5,1141.078,1875.03,1141.966Z" transform="translate(-1873.589 -1119.498)" fill="#e48b25"/>
      </g>
      <g id="Groupe_61713" data-name="Groupe 61713" transform="translate(2065.953 -3655.04)">
        <path id="Tracé_12872" data-name="Tracé 12872" d="M1376.671,466.015a30.836,30.836,0,0,1-14.294-58.157l.758,1.447a29.2,29.2,0,1,0,37.5,42.56l1.34.935A30.877,30.877,0,0,1,1376.671,466.015Z" transform="translate(-1345.839 -407.858)" fill="#e48b25"/>
        <path id="Tracé_12873" data-name="Tracé 12873" d="M1518,510.82l-1.549-.518c.245-.731.462-1.479.646-2.222l1.586.392C1518.492,509.258,1518.262,510.048,1518,510.82Z" transform="translate(-1457.929 -473.7)" fill="#b3a4f5"/>
      </g>
      <g id="Groupe_61714" data-name="Groupe 61714" transform="translate(2234.726 -3585.724)">
        <path id="Tracé_12874" data-name="Tracé 12874" d="M1887.239,609.928h-4.478a.848.848,0,0,0-.848.848v1.391h-15.858v-1.391a.848.848,0,0,0-.848-.848h-4.478a.848.848,0,0,0-.848.848v1.391h-15.858v-1.391a.848.848,0,0,0-.848-.848H1838.7a.848.848,0,0,0-.848.848v4.478a.848.848,0,0,0,.848.848h4.478a.848.848,0,0,0,.848-.848v-1.391h12.656a19.419,19.419,0,0,0-12.746,16.675H1841.9a.848.848,0,0,0-.848.848v4.478a.848.848,0,0,0,.848.848h4.478a.848.848,0,0,0,.848-.848v-4.478a.848.848,0,0,0-.848-.848h-.742a17.644,17.644,0,0,1,14.245-15.782v.5a.848.848,0,0,0,.848.848h4.478a.848.848,0,0,0,.848-.848v-.5a17.644,17.644,0,0,1,14.245,15.782h-.742a.848.848,0,0,0-.848.848v4.478a.848.848,0,0,0,.848.848h4.478a.848.848,0,0,0,.848-.848v-4.478a.848.848,0,0,0-.848-.848H1882a19.419,19.419,0,0,0-12.746-16.675h12.656v1.391a.848.848,0,0,0,.848.848h4.478a.848.848,0,0,0,.848-.848v-4.478A.848.848,0,0,0,1887.239,609.928Zm-44.911,3.935v.543h-2.782v-2.782h2.782v2.239Zm.421,18.37h2.782v2.782h-2.782Zm40.44,2.782h-2.782v-2.782h2.782Zm-18.829-20.609h-2.782v-2.782h2.782v2.782Zm19.249-.543v-2.239h2.782v2.782h-2.782Z" transform="translate(-1837.849 -609.928)" fill="#40327a"/>
        <path id="Tracé_12875" data-name="Tracé 12875" d="M1896.921,650.411a35.96,35.96,0,0,1-2.762-9.171,2.683,2.683,0,1,0-4.28,0,35.9,35.9,0,0,1-2.745,9.177,46.736,46.736,0,0,1-4.86,7.744.85.85,0,0,0-.152.742l3.481,13.046a3.356,3.356,0,0,0,1.177,6.5h0l10.549-.009a3.356,3.356,0,0,0,1.164-6.5l3.453-13.053a.85.85,0,0,0-.154-.742A46.725,46.725,0,0,1,1896.921,650.411Zm-.123,21.32-9.5.008-3.433-12.865a46.427,46.427,0,0,0,4.808-7.747,37.95,37.95,0,0,0,2.5-7.557l.012,12.643a3.684,3.684,0,0,0,.852,7.268h0a3.683,3.683,0,0,0,.841-7.269l-.012-12.646a37.955,37.955,0,0,0,2.511,7.555,46.421,46.421,0,0,0,4.823,7.739Zm-6.749-11.934a1.988,1.988,0,1,1,1.99,1.987l0,.848v-.848A1.991,1.991,0,0,1,1890.049,659.8ZM1893,639.63a.982.982,0,0,1-.06.336.972.972,0,0,1-.079.167v-.5l-1.7,0v.5a1,1,0,0,1-.079-.167.986.986,0,1,1,1.914-.338ZM1885.12,675.1a1.667,1.667,0,0,1,1.659-1.662h.1l10.35-.009h.1a1.666,1.666,0,0,1,1.66,1.659,1.662,1.662,0,0,1-1.659,1.662l-10.549.009,0,.848v-.848A1.663,1.663,0,0,1,1885.12,675.1Z" transform="translate(-1866.917 -627.68)" fill="#40327a"/>
      </g>
      <g id="Groupe_61715" data-name="Groupe 61715" transform="translate(2258.875 -3406.407)">
        <path id="Tracé_12876" data-name="Tracé 12876" d="M1956.622,1141.726a.812.812,0,0,0-.82.01l-7.938,4.763h-2.214v-4.066a.813.813,0,0,0-.813-.813h-23.58v-3.252a2.442,2.442,0,0,1,2.439-2.439h10.57v.813a.813.813,0,0,0,.813.813h9.757a.813.813,0,0,0,.813-.813v-3.252a.813.813,0,0,0-.813-.813h-9.757a.813.813,0,0,0-.813.813v.813H1923.7a4.07,4.07,0,0,0-4.066,4.066v3.252h-5.691a.813.813,0,0,0-.813.813v.813h-4.065a.813.813,0,0,0-.813.813v3.253a.813.813,0,0,0,.238.575l1.388,1.388v2.916a.813.813,0,0,0,.813.813h2.439v7.318a.813.813,0,0,0,.813.813h11.384v1.626H1923.7a.813.813,0,0,0-.755.511l-4.879,12.2a.81.81,0,0,0-.058.3v1.626h1.626v-1.47l4.616-11.54h4.328v13.01h1.626v-13.01h4.328l4.616,11.54v1.47h1.626v-1.626a.825.825,0,0,0-.058-.3l-4.879-12.2a.814.814,0,0,0-.755-.511h-1.626v-1.626h11.383a.813.813,0,0,0,.813-.813v-4.066h2.214l7.938,4.763a.813.813,0,0,0,1.231-.7v-17.888A.813.813,0,0,0,1956.622,1141.726Zm-20.729-7.423h8.131v1.626h-8.131Zm-24.393,17.075v-2.439a.812.812,0,0,0-.238-.575l-1.388-1.388v-2.1h3.252v6.5Zm20.328,11.383h-4.879v-1.626h4.879Zm.813-3.252h-17.888v-16.262h29.272v13.01h-17.888v1.626h17.888v1.626Zm13.01-11.384h1.626v6.505h-1.626Zm9.757,10.761-6.5-3.9v-7.21l6.5-3.9Z" transform="translate(-1908.248 -1132.676)" fill="#40327a"/>
        <rect id="Rectangle_9307" data-name="Rectangle 9307" width="1.626" height="1.626" transform="translate(11.383 23.58)" fill="#40327a"/>
        <rect id="Rectangle_9308" data-name="Rectangle 9308" width="1.626" height="1.626" transform="translate(14.636 23.58)" fill="#40327a"/>
        <rect id="Rectangle_9309" data-name="Rectangle 9309" width="1.626" height="1.626" transform="translate(8.131 23.58)" fill="#40327a"/>
        <path id="Tracé_12877" data-name="Tracé 12877" d="M1949.84,1175.55v-6.5a.813.813,0,0,0-.813-.813h-16.262a.813.813,0,0,0-.813.813v6.5a.813.813,0,0,0,.813.813h16.262A.813.813,0,0,0,1949.84,1175.55Zm-1.626-.813h-14.636v-4.879h14.636Z" transform="translate(-1923.821 -1156.035)" fill="#40327a"/>
        <rect id="Rectangle_9310" data-name="Rectangle 9310" width="1.626" height="1.626" transform="translate(11.383 15.449)" fill="#40327a"/>
        <rect id="Rectangle_9311" data-name="Rectangle 9311" width="1.626" height="1.626" transform="translate(14.636 15.449)" fill="#40327a"/>
      </g>
      <circle id="Ellipse_2428" data-name="Ellipse 2428" cx="46.31" cy="46.31" r="46.31" transform="translate(2058.335 -3655.04) rotate(-45)" fill="#00a3a6" opacity="0.3"/>
      <path id="Tracé_12878" data-name="Tracé 12878" d="M1789.533,568.511l14.557,15.306a33.8,33.8,0,0,0-2.48,2.626L1785.5,572.785A54.928,54.928,0,0,1,1789.533,568.511Z" transform="translate(431.271 -4168.442)" fill="#e48b25" opacity="0.3"/>
      <path id="Tracé_12879" data-name="Tracé 12879" d="M1757.4,594.778l17.5,11.824a33.164,33.164,0,0,0-5.62,16.609l-21.087-1.24A54.3,54.3,0,0,1,1757.4,594.778Z" transform="translate(455.776 -4185.699)" fill="#e48b25" opacity="0.3"/>
      <path id="Tracé_12880" data-name="Tracé 12880" d="M1771.846,703.114a33.3,33.3,0,0,0,61.773,9.339l18.488,10.217a54.426,54.426,0,0,1-100.954-15.313Z" transform="translate(453.834 -4256.873)" fill="#00a3a6" opacity="0.3"/>
      <g id="Groupe_61716" data-name="Groupe 61716" transform="translate(1738.296 -3412.845)" opacity="0.4">
        <path id="Tracé_12881" data-name="Tracé 12881" d="M593.123,1364.475l-.8-1.423c.766-.432,1.539-.9,2.3-1.39l.886,1.372C594.719,1363.541,593.918,1364.026,593.123,1364.475Z" transform="translate(-523.142 -1276.675)" fill="#17305e"/>
        <path id="Tracé_12882" data-name="Tracé 12882" d="M467.272,1197.161l-1.034-1.263a45.292,45.292,0,1,0-73.953-35.651l-1.634-.021a46.924,46.924,0,1,1,76.621,36.935Z" transform="translate(-390.651 -1113.906)" fill="#17305e"/>
        <path id="Tracé_12883" data-name="Tracé 12883" d="M446.025,1334.412a47.137,47.137,0,0,1-42.507-27.022L405,1306.7a45.371,45.371,0,0,0,50.14,25.166l.327,1.6A47.314,47.314,0,0,1,446.025,1334.412Z" transform="translate(-399.104 -1240.564)" fill="#17305e"/>
      </g>
      <path id="Tracé_12884" data-name="Tracé 12884" d="M604.08,1096.578c-1.326-.921-2.71-1.787-4.111-2.575l8-14.242c1.851,1.041,3.678,2.185,5.429,3.4Z" transform="translate(1210.129 -4504.319)" fill="#e48b25" opacity="0.4"/>
      <path id="Tracé_12885" data-name="Tracé 12885" d="M549.914,1075.921a50.4,50.4,0,0,0-21.26-4.833l.132-16.335a66.645,66.645,0,0,1,28.1,6.394Z" transform="translate(1256.981 -4487.89)" fill="#e48b25" opacity="0.4"/>
      <path id="Tracé_12886" data-name="Tracé 12886" d="M504.937,1072.041l-2.028-16.209q1.046-.13,2.1-.229l1.513,16.265Q505.726,1071.942,504.937,1072.041Z" transform="translate(1273.895 -4488.448)" fill="#e48b25" opacity="0.4"/>
      <path id="Tracé_12887" data-name="Tracé 12887" d="M339.184,1165.776a67.264,67.264,0,0,1,30.542-91.93l7.049,14.735a51.178,51.178,0,0,0-28.956,45.931,50.277,50.277,0,0,0,5.821,23.657Z" transform="translate(1386.516 -4500.433)" fill="#e48b25" opacity="0.4"/>
      <path id="Tracé_12888" data-name="Tracé 12888" d="M381.213,1360.821a67.751,67.751,0,0,1-8.083-8.634l12.856-10.077a51.438,51.438,0,0,0,6.129,6.547Z" transform="translate(1359.156 -4676.675)" fill="#e48b25" opacity="0.4"/>
      <path id="Tracé_12889" data-name="Tracé 12889" d="M413.141,1384.741c-.994-.663-1.991-1.367-2.963-2.093l9.778-13.085c.739.553,1.494,1.086,2.245,1.587Z" transform="translate(1334.816 -4694.711)" fill="#e48b25" opacity="0.4"/>
      <circle id="Ellipse_2429" data-name="Ellipse 2429" cx="35.976" cy="35.976" r="35.976" transform="translate(1749.241 -3401.897)" fill="#00a3a6" opacity="0.3"/>
      <g id="Groupe_61717" data-name="Groupe 61717" transform="translate(2002.659 -3161.58)" opacity="0.19">
        <path id="Tracé_12890" data-name="Tracé 12890" d="M1161.325,1877.932h0Z" transform="translate(-1161.325 -1877.115)" fill="#e48b25"/>
        <rect id="Rectangle_9312" data-name="Rectangle 9312" width="119.171" height="1.633" transform="translate(0)" fill="#e48b25"/>
      </g>
      <g id="Groupe_61718" data-name="Groupe 61718" transform="translate(2130.951 -3149.133)" opacity="0.19">
        <path id="Tracé_12891" data-name="Tracé 12891" d="M1535.324,1914.215h0Z" transform="translate(-1535.324 -1913.398)" fill="#e48b25"/>
        <rect id="Rectangle_9313" data-name="Rectangle 9313" width="35.392" height="1.633" transform="translate(0)" fill="#e48b25"/>
      </g>
      <g id="Groupe_61719" data-name="Groupe 61719" transform="translate(1957.123 -3149.133)" opacity="0.19">
        <path id="Tracé_12892" data-name="Tracé 12892" d="M1028.578,1914.215h0Z" transform="translate(-1028.578 -1913.398)" fill="#e48b25"/>
        <rect id="Rectangle_9314" data-name="Rectangle 9314" width="130.944" height="1.633" transform="translate(0)" fill="#e48b25"/>
      </g>
      <g id="Groupe_61720" data-name="Groupe 61720" transform="translate(1879.638 -3149.133)" opacity="0.19">
        <path id="Tracé_12893" data-name="Tracé 12893" d="M802.694,1914.215h0Z" transform="translate(-802.694 -1913.398)" fill="#e48b25"/>
        <rect id="Rectangle_9315" data-name="Rectangle 9315" width="18.271" height="1.633" transform="translate(0)" fill="#e48b25"/>
      </g>
      <g id="Groupe_61721" data-name="Groupe 61721" transform="translate(2160.659 -3161.389)" opacity="0.19">
        <path id="Tracé_12894" data-name="Tracé 12894" d="M1621.929,1878.487h0Z" transform="translate(-1621.929 -1877.67)" fill="#e48b25"/>
        <rect id="Rectangle_9316" data-name="Rectangle 9316" width="78.495" height="1.633" fill="#e48b25"/>
      </g>
      <g id="Groupe_61722" data-name="Groupe 61722" transform="translate(1859.492 -3161.58)" opacity="0.19">
        <path id="Tracé_12895" data-name="Tracé 12895" d="M743.964,1877.932h0Z" transform="translate(-743.964 -1877.115)" fill="#e48b25"/>
        <rect id="Rectangle_9317" data-name="Rectangle 9317" width="131.921" height="1.633" transform="translate(0)" fill="#e48b25"/>
      </g>
      <g id="Groupe_61723" data-name="Groupe 61723" transform="translate(1828.896 -3161.58)" opacity="0.19">
        <path id="Tracé_12896" data-name="Tracé 12896" d="M654.769,1877.932h0Z" transform="translate(-654.769 -1877.115)" fill="#e48b25"/>
        <rect id="Rectangle_9318" data-name="Rectangle 9318" width="17.733" height="1.633" transform="translate(0)" fill="#e48b25"/>
      </g>
      <rect id="Rectangle_9319" data-name="Rectangle 9319" width="8.304" height="1.634" transform="translate(2271.837 -3173.836)" fill="#e48b25" opacity="0.19"/>
      <rect id="Rectangle_9320" data-name="Rectangle 9320" width="464.69" height="1.634" transform="translate(1795.74 -3173.836)" fill="#e48b25" opacity="0.19"/>
      <rect id="Rectangle_9321" data-name="Rectangle 9321" width="11.776" height="1.634" transform="translate(1776.216 -3173.836)" fill="#e48b25" opacity="0.19"/>
      <rect id="Rectangle_9322" data-name="Rectangle 9322" width="9.996" height="1.634" transform="translate(2188.054 -3173.836)" fill="#e48b25"/>
      <rect id="Rectangle_9323" data-name="Rectangle 9323" width="40.156" height="1.634" transform="translate(2099.235 -3173.836)" fill="#e48b25"/>
      <rect id="Rectangle_9324" data-name="Rectangle 9324" width="190.157" height="1.634" transform="translate(1897.91 -3173.836)" fill="#e48b25"/>
      <rect id="Rectangle_9325" data-name="Rectangle 9325" width="15.752" height="1.634" transform="translate(1851.747 -3173.836)" fill="#e48b25"/>
      <g id="Groupe_61724" data-name="Groupe 61724" transform="translate(2146.197 -3161.389)" opacity="0.19">
        <path id="Tracé_12897" data-name="Tracé 12897" d="M1588.345,1878.487h0Z" transform="translate(-1579.769 -1877.67)" fill="#e48b25"/>
        <rect id="Rectangle_9326" data-name="Rectangle 9326" width="8.576" height="1.633" fill="#e48b25"/>
      </g>
      <path id="Tracé_12898" data-name="Tracé 12898" d="M1288,1259.978h5.033l0-10.607v0h0v-4.329h0v-4.994h0l-.023-51.341-4.132-5.677-.157,31.471c.007.158.013.323.017.49h.05l-.039.858q0,1.414-.142,2.875l-2.508,51.013h1.9Z" transform="translate(759.358 -4572.163)" fill="none"/>
      <path id="Tracé_12899" data-name="Tracé 12899" d="M1053.108,1142.342l21.047,36.808-4.476-47.963Z" transform="translate(912.43 -4538.105)" fill="none"/>
      <path id="Tracé_12900" data-name="Tracé 12900" d="M1312.82,1412.116a6.528,6.528,0,0,1-12.955,0h-3.456v8.123h19.6v-8.124Z" transform="translate(752.588 -4722.667)" fill="none"/>
      <path id="Tracé_12901" data-name="Tracé 12901" d="M1224.847,1363h0Z" transform="translate(799.603 -4690.401)" fill="none"/>
      <rect id="Rectangle_9327" data-name="Rectangle 9327" width="4.855" height="0.001" transform="translate(2019.591 -3248.523)" fill="#ff95a9"/>
      <path id="Tracé_12908" data-name="Tracé 12908" d="M1130.921,1006.283h0Z" transform="translate(861.309 -4456.046)" fill="#7760db"/>
      <path id="Tracé_12918" data-name="Tracé 12918" d="M1264.852,938.277l-.294-1.368.3,1.375Z" transform="translate(773.513 -4410.47)" fill="#ff95a9"/>
      <path id="Tracé_12930" data-name="Tracé 12930" d="M1119.974,1280.654l-2.311-4.043.866,1.5Z" transform="translate(870.019 -4633.644)" fill="#7760db"/>
      <path id="Tracé_12933" data-name="Tracé 12933" d="M1107.945,1314.383h0l1.649-1.17Z" transform="translate(876.403 -4657.691)" fill="#fff"/>
      <g id="Groupe_61725" data-name="Groupe 61725" transform="translate(1760.062 -3390.599)">
        <path id="Tracé_12936" data-name="Tracé 12936" d="M543.747,1228.31a5.315,5.315,0,0,1-5.309-5.309h0a5.309,5.309,0,1,1,5.309,5.309ZM540.153,1223a3.594,3.594,0,1,0,3.594-3.594,3.6,3.6,0,0,0-3.594,3.594Z" transform="translate(-509.509 -1204.337)" fill="#17305e"/>
        <path id="Tracé_12937" data-name="Tracé 12937" d="M535.237,1212.7a.854.854,0,0,1-.557-.206l-3.66-3.125,1.114-1.3,3.057,2.611,2.542-2.542-2.611-3.057a.858.858,0,0,1-.074-1.014,12.372,12.372,0,0,0,1.605-3.865.858.858,0,0,1,.769-.665l4-.316v-3.595l-4-.316a.858.858,0,0,1-.769-.665,12.391,12.391,0,0,0-1.6-3.865.856.856,0,0,1,.073-1.014l2.611-3.057-2.542-2.542-3.057,2.611a.857.857,0,0,1-1.014.073,12.38,12.38,0,0,0-3.865-1.6.857.857,0,0,1-.665-.769l-.316-4H522.68l-.316,4a.857.857,0,0,1-.665.769,12.388,12.388,0,0,0-3.865,1.605.858.858,0,0,1-1.014-.073l-3.057-2.611-2.542,2.542,2.611,3.057a.857.857,0,0,1,.073,1.014,12.4,12.4,0,0,0-1.6,3.865.857.857,0,0,1-.769.665l-2.291.18-.135-1.71,1.677-.132a14.094,14.094,0,0,1,1.344-3.237l-2.725-3.19a.858.858,0,0,1,.046-1.163l3.663-3.663a.858.858,0,0,1,1.163-.046l3.191,2.725a14.1,14.1,0,0,1,3.238-1.345l.33-4.18a.857.857,0,0,1,.855-.79h5.18a.858.858,0,0,1,.855.79l.329,4.18a14.085,14.085,0,0,1,3.237,1.344l3.191-2.725a.858.858,0,0,1,1.163.046l3.663,3.663a.857.857,0,0,1,.046,1.163l-2.725,3.191a14.075,14.075,0,0,1,1.344,3.237l4.18.33a.857.857,0,0,1,.79.855v5.18a.858.858,0,0,1-.79.855l-4.18.33a14.071,14.071,0,0,1-1.344,3.237l2.725,3.191a.857.857,0,0,1-.046,1.163l-3.663,3.662A.854.854,0,0,1,535.237,1212.7Z" transform="translate(-490.239 -1178.76)" fill="#17305e"/>
        <path id="Tracé_12938" data-name="Tracé 12938" d="M475.617,1230.536a5.354,5.354,0,0,1-5.309-5.627v-1.59a5.318,5.318,0,1,1,10.618,0v1.59A5.355,5.355,0,0,1,475.617,1230.536Zm0-11.129a3.639,3.639,0,0,0-3.594,3.911v1.59a3.607,3.607,0,1,0,7.188,0v-1.59A3.639,3.639,0,0,0,475.617,1219.407Z" transform="translate(-464.749 -1204.337)" fill="#17305e"/>
        <path id="Tracé_12939" data-name="Tracé 12939" d="M473.853,1274.938H466.8l-5.822-6.986,1.318-1.1,5.307,6.369h6.255a2.24,2.24,0,0,0,1.769-.67,3.472,3.472,0,0,0,.722-2.066h-6.219l-7.769-8.9h-1.836c-1.957,0-3.27,1.354-3.6,3.714-.377,2.672-1.1,8.822-1.111,8.884l-1.7-.2c.007-.062.736-6.231,1.115-8.923.451-3.2,2.483-5.19,5.3-5.19h2.615l7.769,8.9h7.055l.085.763a5.916,5.916,0,0,1-1.14,4.158A3.9,3.9,0,0,1,473.853,1274.938Z" transform="translate(-454.103 -1232.046)" fill="#17305e"/>
        <path id="Tracé_12940" data-name="Tracé 12940" d="M517.239,1269.468h-5.565v-1.715h5.079l5.648-9.414H508.795l-4.2,6.3-1.427-.952,4.452-6.677a.857.857,0,0,1,.714-.382h15.581a.858.858,0,0,1,.735,1.3l-6.677,11.129A.858.858,0,0,1,517.239,1269.468Z" transform="translate(-486.339 -1229.915)" fill="#17305e"/>
        <rect id="Rectangle_9328" data-name="Rectangle 9328" width="32.274" height="1.715" transform="translate(7.529 41.177)" fill="#17305e"/>
      </g>
      <g id="Groupe_61726" data-name="Groupe 61726" transform="translate(1756.396 -3573.984)">
        <path id="Tracé_12941" data-name="Tracé 12941" d="M583.228,676.787c.017.194.023.391.029.588h4.776v31.716H585.4l.586,1.983h4.031V675.392h-7c.01.044.017.089.026.134A10.928,10.928,0,0,1,583.228,676.787Z" transform="translate(-535.128 -664.676)" fill="#40327a"/>
        <path id="Tracé_12942" data-name="Tracé 12942" d="M450.432,701.4h16.446l.586-1.983H450.432a5.043,5.043,0,0,1-5.033-5.033v-26.7a5.039,5.039,0,0,1,5.033-5.034h3.623v28.164h-3.623a3.32,3.32,0,0,0-3.316,3.315v.254H449.1v-.254a1.334,1.334,0,0,1,1.332-1.332h5.607V667.7h13.568a10.937,10.937,0,0,1,.242-1.983h-13.81v-5.051h-5.607a7.025,7.025,0,0,0-7.017,7.017V694.4A7.027,7.027,0,0,0,450.432,701.4Z" transform="translate(-443.415 -655.003)" fill="#40327a"/>
        <path id="Tracé_12943" data-name="Tracé 12943" d="M536.518,773.632l-.586,1.983H546.78l-.586-1.983Z" transform="translate(-504.196 -729.217)" fill="#40327a"/>
        <path id="Tracé_12944" data-name="Tracé 12944" d="M524.732,664.638,520.7,678.283h-5.354v1.983h4.767l-2.454,8.3-.586,1.983-1.024,3.465h-.953V696h.862l.594,3.365,1.954-.345-.7-3.954,1.334-4.514.586-1.983,2.455-8.3h4.494v2.983h1.983v-2.983h4.494l2.454,8.3.586,1.983,1.334,4.514-.7,3.954,1.953.345.594-3.365h.862v-1.983h-.953l-1.024-3.465-.586-1.983-2.454-8.3h4.767v-1.983h-5.354L530.6,664.638a8.014,8.014,0,0,0,5.073-7.443c0-.116-.011-.229-.016-.344a7.979,7.979,0,0,0-7-7.595v-5.1h-1.983v5.1a7.977,7.977,0,0,0-7,7.595c-.005.115-.016.228-.016.344A8.014,8.014,0,0,0,524.732,664.638Zm7.833,13.644h-3.908V675.3h-1.983v2.983h-3.908l3.888-13.151a7.239,7.239,0,0,0,2.023,0Zm-10.906-21.431a6.015,6.015,0,0,1,12.012,0c.007.115.018.228.018.344a6.024,6.024,0,0,1-12.047,0C521.642,657.079,521.653,656.966,521.659,656.852Z" transform="translate(-490.505 -644.152)" fill="#40327a"/>
      </g>
      <g id="Groupe_61727" data-name="Groupe 61727" transform="translate(1890.595 -3730.197)">
        <path id="Tracé_12945" data-name="Tracé 12945" d="M881.708,287.28V287.2H866.779V279.9H854.236V287.2H839.306v.077a5.55,5.55,0,0,0,0,10.959v.078h42.4v-.078a5.55,5.55,0,0,0,0-10.959Zm-.886,9.266a3.786,3.786,0,1,1,3.786-3.786A3.79,3.79,0,0,1,880.822,296.546Zm-24.816-14.879h9V287.2h-9Zm10.772,7.307h9.987a5.526,5.526,0,0,0,0,7.572H844.249a5.527,5.527,0,0,0,0-7.572h22.53Zm-22.8,3.786a3.786,3.786,0,1,1-3.786-3.786A3.79,3.79,0,0,1,843.978,292.76Z" transform="translate(-834.635 -248.633)" fill="#40327a"/>
        <rect id="Rectangle_9329" data-name="Rectangle 9329" width="1.771" height="3.057" transform="translate(14.281 42.598)" fill="#40327a"/>
        <rect id="Rectangle_9330" data-name="Rectangle 9330" width="1.771" height="3.057" transform="translate(19.634 42.598)" fill="#40327a"/>
        <rect id="Rectangle_9331" data-name="Rectangle 9331" width="1.771" height="3.057" transform="translate(24.987 42.598)" fill="#40327a"/>
        <rect id="Rectangle_9332" data-name="Rectangle 9332" width="1.771" height="3.057" transform="translate(30.339 42.598)" fill="#40327a"/>
        <rect id="Rectangle_9333" data-name="Rectangle 9333" width="1.771" height="3.057" transform="translate(35.692 42.598)" fill="#40327a"/>
        <path id="Tracé_12946" data-name="Tracé 12946" d="M858.374,201.971l-2.362,2.657v6.824l4.3,5.947,1.436-1.038-3.965-5.482v-1.927H868.19v1.927l-3.965,5.482,1.436,1.038,4.3-5.947v-6.824l-2.362-2.657V196.44h19.965v-1.771H866.087V193.1a2.573,2.573,0,0,1,2.57-2.57h18.908v-1.771H868.657a4.346,4.346,0,0,0-4.341,4.341v1.569h-2.657V193.1a4.346,4.346,0,0,0-4.341-4.341H838.409v1.771h18.908a2.573,2.573,0,0,1,2.57,2.57v1.569H838.409v1.771h19.965Zm9.816,3.33v1.877H857.783V205.3l2.362-2.657v-6.2h5.683v6.2Z" transform="translate(-837.114 -188.759)" fill="#40327a"/>
      </g>
      <path id="Tracé_12947" data-name="Tracé 12947" d="M1465.447,360.729V319.273h23.015v41.456h-1.229v1.788h3.016V317.485h-26.59v45.031h3.016v-1.788Z" transform="translate(642.709 -4003.525)" fill="#40327a"/>
      <rect id="Rectangle_9334" data-name="Rectangle 9334" width="6.256" height="1.788" transform="translate(2116.535 -3642.796)" fill="#40327a"/>
      <path id="Tracé_12948" data-name="Tracé 12948" d="M1494.237,338.9h-17.875v7.784h17.875Zm-1.787,6h-14.3v-4.209h14.3Z" transform="translate(634.364 -4017.594)" fill="#40327a"/>
      <path id="Tracé_12949" data-name="Tracé 12949" d="M1484.97,376.667a9.11,9.11,0,1,0,9.109,9.11A9.12,9.12,0,0,0,1484.97,376.667Zm0,16.432a7.322,7.322,0,1,1,7.322-7.322A7.331,7.331,0,0,1,1484.97,393.1Z" transform="translate(634.693 -4042.406)" fill="#40327a"/>
      <rect id="Rectangle_9335" data-name="Rectangle 9335" width="10.165" height="1.787" transform="translate(2115.437 -3653.667) rotate(-45)" fill="#40327a"/>
      <path id="Tracé_12950" data-name="Tracé 12950" d="M1509.653,364.373v19.436a2.381,2.381,0,0,1-2.379,2.379h-9.431a2.342,2.342,0,0,1-.256-.026,2.392,2.392,0,0,1-2.123-2.353v-4.974h-1.787v4.974a4.231,4.231,0,0,0,.75,2.379h-9.991a2.381,2.381,0,0,1-2.379-2.379v-4.6h-1.787v4.6a4.171,4.171,0,0,0,4.166,4.166h13.151v-.013c.085.005.17.013.256.013h9.431a4.177,4.177,0,0,0,4.166-4.166V364.373a2.75,2.75,0,0,0,2.495-2.735V353.66h-2.495v-5.586h-1.787v5.586h-2.495v7.978A2.751,2.751,0,0,0,1509.653,364.373Zm2.495-8.925v6.19a.961.961,0,0,1-.96.96H1509.9a.961.961,0,0,1-.959-.96v-6.19Z" transform="translate(631.796 -4023.621)" fill="#40327a"/>
      <path id="Tracé_12951" data-name="Tracé 12951" d="M1583.188,348.074H1581.4v5.586h-2.5v7.978a2.751,2.751,0,0,0,2.5,2.735v19.436a2.382,2.382,0,0,1-2.379,2.379h-3.232a6.838,6.838,0,0,1-.991,1.788h4.223a4.171,4.171,0,0,0,4.166-4.166V364.373a2.75,2.75,0,0,0,2.5-2.735V353.66h-2.5Zm.708,13.564a.961.961,0,0,1-.96.96h-1.283a.961.961,0,0,1-.96-.96v-6.19h3.2Z" transform="translate(569.694 -4023.621)" fill="#40327a"/>
      <rect id="Rectangle_9336" data-name="Rectangle 9336" width="1.788" height="1.974" transform="translate(2123.238 -3675.79)" fill="#40327a"/>
      <rect id="Rectangle_9337" data-name="Rectangle 9337" width="1.788" height="1.974" transform="translate(2119.747 -3675.79)" fill="#40327a"/>
      <g id="Groupe_61728" data-name="Groupe 61728" transform="translate(-3034.349 -6284.211)">
        <path id="Tracé_12953" data-name="Tracé 12953" d="M5269.215,3106.2s15.785,64.7,14.376,74.939-23.447,10.633-23.447,10.633l-8.381-82.222Z" transform="translate(-159.457 -190.165)" fill="#ffd191"/>
        <path id="Tracé_12954" data-name="Tracé 12954" d="M5156.964,3403.324h38.057c2.674-34.456,3.624-88.878,2.514-100.812-1.248-13.411-3.687-26.661-7.981-25.745s-21.113-1.744-25.385.965-15.032,10.757-15.676,11.815-.12,34.792-.12,34.792S5153.829,3387.989,5156.964,3403.324Z" transform="translate(-96.55 -293.571)" fill="#00a3a6"/>
        <path id="Tracé_12955" data-name="Tracé 12955" d="M5040.515,3412.472h39.53c1.566-8.44,2.859-67.44,2.859-67.44l6.689-53.491-54.678,3.343s-.006,39.865.741,53.247C5036.344,3360.434,5039.631,3405.32,5040.515,3412.472Z" transform="translate(-27.771 -302.72)" fill="#00a3a6"/>
        <path id="Tracé_12956" data-name="Tracé 12956" d="M5128.248,2942.65c-2.316-1.469-7.673-3.2-8.878-6.908s-1.554-12.176-1.414-18.455c.063-.015.127-.026.19-.042.415-.1.265-.821-.15-.72l-.022,0q.019-.734.041-1.463c.02-.646-1.2-.461-.37.68l-.318.925a65.7,65.7,0,0,1-22.093,1.277c-.043-1.208-.083-2.392-.1-3.529a.331.331,0,1,0-.659-.023c.01,1.122.052,2.29.1,3.485l-.041.022c-.549-.245-.623.643-.162.7.076.01.153.014.23.023.195,5.291-.718,14.652-1.49,16.836-.95,2.686-8.414,5.947-13.269,7.463a.32.32,0,0,0-.17.133c-.015-.009-.028-.02-.043-.029-.369-.231-.726.4-.355.628,4.091,2.567,6.617,7.087,10.138,10.418,3.547,3.357,8.347,4.355,11.8,7.827a.342.342,0,0,0,.395.069C5112.863,2956.468,5128.279,2942.67,5128.248,2942.65Z" transform="translate(-54.613 -73.479)" fill="#ffa680"/>
        <path id="Tracé_12957" data-name="Tracé 12957" d="M5137.3,2841.2q.111-1.7.173-3.4c.2-5.381.057-10.582-3.183-15.111-2.422-3.386-6.52-5.392-10.658-6.48-5.479-1.442-11.712-1.3-16.121,2.31-4.938,4.043-6.794,7.7-7.562,13.691-.856,6.694.18,10.925,1.8,17.542.93,3.8,1.551,7.7,3.58,11.11,1.662,2.793,3.385,5.786,6.53,7.083,4.57,1.885,12.349,2.479,16.332-.216,3.714-2.512,5.435-7.212,6.627-11.308A70.934,70.934,0,0,0,5137.3,2841.2Z" transform="translate(-67.074 -13.544)" fill="#ffa680"/>
        <path id="Tracé_12958" data-name="Tracé 12958" d="M5186.845,2881.732s2.99-1.691,3.469,3.308-1.179,8.351-3.647,8.469-3-3.773-3-3.773Z" transform="translate(-118.104 -53.686)" fill="#ffa680"/>
        <path id="Tracé_12959" data-name="Tracé 12959" d="M5098.931,2881.732s-2.989-1.691-3.468,3.308,1.179,8.351,3.646,8.469,3-3.773,3-3.773Z" transform="translate(-64.49 -53.686)" fill="#ffa680"/>
        <path id="Tracé_12960" data-name="Tracé 12960" d="M5126.087,2880.083c-1.806-.478-1.774,3.945-.434,4.065a1.114,1.114,0,0,0,.872-.369C5127.3,2882.97,5127.457,2880.446,5126.087,2880.083Z" transform="translate(-82.286 -52.829)" fill="#382823"/>
        <path id="Tracé_12961" data-name="Tracé 12961" d="M5169.392,2880.083c-1.8-.478-1.774,3.945-.433,4.065a1.112,1.112,0,0,0,.872-.369C5170.607,2882.97,5170.763,2880.446,5169.392,2880.083Z" transform="translate(-108.584 -52.829)" fill="#382823"/>
        <path id="Tracé_12962" data-name="Tracé 12962" d="M5123.054,2867.773c-1.142-2.263-5.606-1-7.515-.747-.682.09-3.257.975-2.329,2.027.553.627,2.955.137,3.775.11l4.314-.146a2.39,2.39,0,0,0,1.371-.329C5123.117,2868.355,5123.192,2868.046,5123.054,2867.773Z" transform="translate(-75.196 -44.57)" fill="#875549"/>
        <path id="Tracé_12963" data-name="Tracé 12963" d="M5159.44,2868.688a2.4,2.4,0,0,0,1.372.329l4.313.146c.82.027,3.223.517,3.775-.11.929-1.052-1.647-1.937-2.328-2.027-1.909-.253-6.374-1.516-7.517.747C5158.92,2868.046,5158.994,2868.355,5159.44,2868.688Z" transform="translate(-103.121 -44.57)" fill="#875549"/>
        <g id="Groupe_61729" data-name="Groupe 61729" transform="translate(5051.744 2827.696)">
          <path id="Tracé_12964" data-name="Tracé 12964" d="M5148.85,2894.179a.37.37,0,0,1,0-.741c.024,0,2.486-.021,2.788-1.377a3.078,3.078,0,0,0-.4-1.894,14.414,14.414,0,0,1-.833-2.514,43.544,43.544,0,0,1-.75-6,.371.371,0,0,1,.35-.391.366.366,0,0,1,.39.351,43.459,43.459,0,0,0,.731,5.876,13.746,13.746,0,0,0,.8,2.393,3.7,3.7,0,0,1,.439,2.339C5151.932,2894.157,5148.976,2894.179,5148.85,2894.179Z" transform="translate(-5148.48 -2881.264)" fill="#f07f4f"/>
        </g>
        <path id="Tracé_12965" data-name="Tracé 12965" d="M5133.723,2921.6a64.882,64.882,0,0,0,6.61.237c4.466-.07,6.623-.305,6.623-.305s-1.14,3.322-6.687,3.322A7.739,7.739,0,0,1,5133.723,2921.6Z" transform="translate(-87.775 -78.019)" fill="#fff"/>
        <g id="Groupe_61730" data-name="Groupe 61730" transform="translate(5040.258 2850.289)">
          <path id="Tracé_12966" data-name="Tracé 12966" d="M5132.1,2946.313a18.687,18.687,0,0,1-6.638-1.125c-2.23-.886-5.984-5.6-6.144-5.8a.371.371,0,1,1,.582-.46c.038.047,3.788,4.753,5.836,5.567,3.929,1.562,9.4,1.194,11.435.255,1.938-.892,4.165-3.81,4.187-3.839a.371.371,0,0,1,.591.448c-.1.126-2.362,3.095-4.469,4.065A13.928,13.928,0,0,1,5132.1,2946.313Z" transform="translate(-5119.233 -2938.792)" fill="#f07f4f"/>
        </g>
        <g id="Groupe_61731" data-name="Groupe 61731" transform="translate(5068.709 2831.857)">
          <path id="Tracé_12967" data-name="Tracé 12967" d="M5192.05,2896.769a.37.37,0,0,1-.232-.66h0a3.04,3.04,0,0,0,.56-1.576,3.876,3.876,0,0,0-.2-2.139.37.37,0,0,1,.663-.33,4.512,4.512,0,0,1,.266,2.587,3.248,3.248,0,0,1-.829,2.037A.368.368,0,0,1,5192.05,2896.769Z" transform="translate(-5191.678 -2891.86)" fill="#f07f4f"/>
        </g>
        <g id="Groupe_61732" data-name="Groupe 61732" transform="translate(5033.311 2831.857)">
          <path id="Tracé_12968" data-name="Tracé 12968" d="M5102.667,2896.766a.358.358,0,0,1-.226-.08,3.249,3.249,0,0,1-.829-2.037,4.52,4.52,0,0,1,.266-2.586.371.371,0,0,1,.664.33h0a3.866,3.866,0,0,0-.2,2.139,2.956,2.956,0,0,0,.571,1.584.377.377,0,0,1,.034.518A.371.371,0,0,1,5102.667,2896.766Z" transform="translate(-5101.543 -2891.859)" fill="#f07f4f"/>
        </g>
        <g id="Groupe_61733" data-name="Groupe 61733" transform="translate(5035.533 2825.302)">
          <path id="Tracé_12969" data-name="Tracé 12969" d="M5122.365,2876.177a1.849,1.849,0,0,0-.519-.217,32.6,32.6,0,0,0-11.455-.527c-.834.1-3.139.411-3.139.411l-.05,1.635a4.245,4.245,0,0,1,1.37,2.838c.553,3.325,4.811,5.716,8.318,4.842a6.756,6.756,0,0,0,4.32-3.149,17.334,17.334,0,0,0,1.409-5.527A.609.609,0,0,0,5122.365,2876.177Zm-2.47,6.253a5.71,5.71,0,0,1-3.048,1.97,6.555,6.555,0,0,1-5.835-1.579,4.675,4.675,0,0,1-1.157-2.311,12.775,12.775,0,0,1-.346-2.959c.233-.794,1.11-.942,1.828-1.071a26.619,26.619,0,0,1,5.607-.21c.814.053,1.625.142,2.434.251.555.075,1.5.114,1.827.633a3.064,3.064,0,0,1,.029,1.984A9.05,9.05,0,0,1,5119.9,2882.43Z" transform="translate(-5107.201 -2875.169)" fill="#382823"/>
          <path id="Tracé_12970" data-name="Tracé 12970" d="M5152.958,2876.484a17.342,17.342,0,0,0,1.41,5.527,6.753,6.753,0,0,0,4.319,3.149c3.508.874,7.766-1.518,8.318-4.842a4.247,4.247,0,0,1,1.371-2.838l-.052-1.635s-2.3-.311-3.138-.411a32.593,32.593,0,0,0-11.454.527,1.846,1.846,0,0,0-.52.217A.608.608,0,0,0,5152.958,2876.484Zm1.384,2.654a3.064,3.064,0,0,1,.031-1.984c.327-.52,1.272-.558,1.826-.633.809-.109,1.619-.2,2.434-.251a26.63,26.63,0,0,1,5.608.21c.717.129,1.594.277,1.827,1.071a12.749,12.749,0,0,1-.346,2.959,4.663,4.663,0,0,1-1.157,2.311,6.552,6.552,0,0,1-5.834,1.579,5.7,5.7,0,0,1-3.047-1.97A9.044,9.044,0,0,1,5154.342,2879.138Z" transform="translate(-5134.983 -2875.169)" fill="#382823"/>
          <path id="Tracé_12971" data-name="Tracé 12971" d="M5144.459,2877.062a6.983,6.983,0,0,0,2.014.392,6.181,6.181,0,0,0,2.406-.469l-.271,2.238a4.045,4.045,0,0,0-2.036-.481,3.156,3.156,0,0,0-2.112.967Z" transform="translate(-5129.827 -2876.271)" fill="#382823"/>
        </g>
        <path id="Tracé_12972" data-name="Tracé 12972" d="M5103.69,2878.345l-3.644-1.361-.409,1.2,4.67,3.17Z" transform="translate(-67.075 -50.969)" fill="#382823"/>
        <path id="Tracé_12973" data-name="Tracé 12973" d="M5188.26,2878.345l3.644-1.361.409,1.2-4.67,3.17Z" transform="translate(-120.519 -50.969)" fill="#382823"/>
        <path id="Tracé_12974" data-name="Tracé 12974" d="M5132.516,2810.462a5.071,5.071,0,0,0-1.491-2.987,6.065,6.065,0,0,1-1.7-2.346c-.241-.833-.146-1.744-.332-2.59a4.766,4.766,0,0,0-4.251-3.99,16.513,16.513,0,0,0-1.437-3.093,5.573,5.573,0,0,0-3.947-2.357c-2.346-.3-3.671.937-5.631,1.922-2.932,1.475-6.146-.5-9.123-.878a11.126,11.126,0,0,0-5.605.573,7.644,7.644,0,0,0-2.294,1.456,34.5,34.5,0,0,1-3.349,2.949,3,3,0,0,0-1.424,3.48c-.087-.033-.172-.072-.265-.1a6.5,6.5,0,0,0-3.852.083,8.323,8.323,0,0,0-5.052,5.584c-.221.7-.279,1.437-.484,2.137a7.311,7.311,0,0,1-1.828,2.74,4.875,4.875,0,0,0-1.2,3.388c.027,2.38.87,5.433,3.223,6.476.34.645.293,1.319.594,1.971a2.551,2.551,0,0,0,1.4,1.264,2.392,2.392,0,0,0,.52,1c.821.925,3.184,1.7,3.986.482a9.773,9.773,0,0,0,1.154-3.972c.2-1.647,1.905-1.891,3.145-2.675a7.292,7.292,0,0,0,1.533-1.154c.667-.746.46-1.218.723-2.068.275-.9.583-.882,1.163-1.4a5.559,5.559,0,0,0,1.629-2.4,3.634,3.634,0,0,1,.7.533c1.309,1.325.814,3.387,2.3,4.683a4.133,4.133,0,0,0,3.525.869,3.3,3.3,0,0,1,1.653-.067,4.6,4.6,0,0,0,2.361-.339,4.372,4.372,0,0,1,3.724-.1,22.645,22.645,0,0,0,2.93,1c1.335.3,2.653.479,3.7-.351.686.406,1.428.744,1.953,1.085,1.031.668,1.034,1.376,1.334,2.484a2.037,2.037,0,0,0,.39.964,1.517,1.517,0,0,0,.666.4c0,1.364.194,2.832,1.088,2.875a1.063,1.063,0,0,0,.646-.176,2.991,2.991,0,0,0,2.918-1.065c1.324-1.476.73-3.044,1.076-4.763.266-1.32,1.028-1.345,1.692-2.356a3.943,3.943,0,0,0,.583-2.152,7.944,7.944,0,0,0-.687-2.972C5131.741,2813.331,5132.69,2812.181,5132.516,2810.462Z" transform="translate(-54.696 0)" fill="#17305e"/>
        <path id="Tracé_12975" data-name="Tracé 12975" d="M5057.649,2980.046s17.414,14.345,18.716,14.17,19.433-12.551,20.812-12.376,14.774,9.579,14.774,9.579,4.537,75.552,7.292,82.35,7.913,39.564,6.765,41.895-23.993,4.1-39.153,2.808-28.253-.363-36.292-2.228-19.21,1.037-20.129-.5,14.616-132.6,15.995-133.063S5057.649,2980.046,5057.649,2980.046Z" transform="translate(-25.026 -113.556)" fill="#fff"/>
        <path id="Tracé_12976" data-name="Tracé 12976" d="M5038.7,2980.046s-10.532,77.681-11.451,87-1.608,14.885-4.136,18.746-7.342,20.9-8.2,26.027-1.281,30.508-1.281,30.508-4.068-3.962-7.284-4.661-6.661-.233-7.121-1.4,3.905-34.262,5.742-50.459,7.351-96.839,10.107-101.034S5038.7,2980.046,5038.7,2980.046Z" transform="translate(-6.078 -113.556)" fill="#e48b25"/>
        <path id="Tracé_12977" data-name="Tracé 12977" d="M5027.719,3289.561c.122.419,1.494,4.233,1.4,4.328-.335.339-.385,1.752-.418,2.22a31.235,31.235,0,0,0,.422,5.926q.171,1.407.424,2.8a18.614,18.614,0,0,1,.634,3.054c4.886-4.044,10.028-7.78,14.832-11.93a75.921,75.921,0,0,0-3.864-9.784c-2.032-4.251-4.618-20.192-4.618-20.192l-18.6,2.929c2.979,5.41,6.106,10.779,8.364,16.552C5026.813,3286.817,5027.317,3288.166,5027.719,3289.561Z" transform="translate(-17.451 -287.2)" fill="#ffa680"/>
        <path id="Tracé_12978" data-name="Tracé 12978" d="M5012.9,2986.449a22.917,22.917,0,0,0-12.854,7.11c-3.048,3.374-7.647,22.8-6.925,28.184s-1.115,19-2.493,26.173.459,12.885,0,17.487-2.653,15.926-.523,19.238a25.5,25.5,0,0,1,3.167,7.071,14.63,14.63,0,0,1,.587,3.7c.009,1.561-.138,2.488,1.105,3.668a8.969,8.969,0,0,1,2.653,4.567c.581.047,1.23.068,1.968.056,8.5-.141,22.052-5.648,22.052-5.648Z" transform="translate(0 -117.445)" fill="#e48b25"/>
        <g id="Groupe_61734" data-name="Groupe 61734" transform="translate(5028.761 2909.734)">
          <path id="Tracé_12979" data-name="Tracé 12979" d="M5099.8,3114.051a61.559,61.559,0,0,1-5.7,4.114c0,1.354-.087,2.721-.2,4.08C5095.951,3119.588,5097.841,3116.792,5099.8,3114.051Z" transform="translate(-5092.352 -3104.668)" fill="#f5ded3"/>
          <path id="Tracé_12980" data-name="Tracé 12980" d="M5106.015,3165.242c.527-.041,1.053-.1,1.579-.164,2.172-7.259,4.215-14.541,4.777-22.125-4.69,3.744-8.236,8.576-12.356,12.911-2.9,3.05-5.988,5.955-8.685,9.177a54.992,54.992,0,0,1,7.289-.042A41.08,41.08,0,0,0,5106.015,3165.242Z" transform="translate(-5090.791 -3122.219)" fill="#f5ded3"/>
          <path id="Tracé_12981" data-name="Tracé 12981" d="M5178.377,3091.929c-3.531,6.334-7.185,12.606-9.22,19.6,3.125-.517,5.941-2.165,8.685-3.682,2.312-1.278,4.648-2.473,6.854-3.934,1.359-.9,2.691-1.839,4.027-2.768q-.229-4.437-.46-8.875a.379.379,0,0,0-.371-.371Q5183.134,3091.807,5178.377,3091.929Z" transform="translate(-5138.054 -3091.193)" fill="#f5ded3"/>
          <path id="Tracé_12982" data-name="Tracé 12982" d="M5184.93,3164.215a116.464,116.464,0,0,0-12.776,13.046c1.972-.007,3.946,0,5.935.042a28.353,28.353,0,0,0,3.726-.244C5182.955,3172.806,5184.873,3168.635,5184.93,3164.215Z" transform="translate(-5139.874 -3135.132)" fill="#f5ded3"/>
          <path id="Tracé_12983" data-name="Tracé 12983" d="M5140.588,3127.227c.038-2.26.9-4.206.588-6.5a29.641,29.641,0,0,1-.4-6.756,54.835,54.835,0,0,0,.15-7.1c-.068-1.606-.152-3.211-.232-4.816-1.94,1.363-3.88,2.732-5.926,3.929-4.4,2.573-9.378,5.882-14.559,6.369a.613.613,0,0,1-.587-.77c1.951-7.272,5.682-13.748,9.323-20.271-1.9-.124-3.795-.156-5.691-.306-2.681,1.933-5.346,3.883-7.86,6.023-3.417,2.91-7.415,7.034-12.065,7.708-.459.066-1.038-.408-.687-.894,2.916-4.033,5.621-8.21,8.4-12.337a61.469,61.469,0,0,1-8.73.612,58.614,58.614,0,0,0-10.4.324c-.649.093-1.3.193-1.942.291-.1,1.988.709,4.138,1.182,6.074a20.224,20.224,0,0,1,.526,3.936,102.156,102.156,0,0,0,8.656-6.617.609.609,0,0,1,.86.86c-3.437,4.365-6.38,9.148-9.874,13.455-.1,1.09-.192,2.167-.255,3.218-.285,4.806-.669,9.618-.806,14.432-.035,1.248-.094,2.574-.062,3.886,2.567-2.956,5.426-5.676,8.126-8.517,4.5-4.73,8.309-10,13.617-13.906a.612.612,0,0,1,.916.525c-.4,8.007-2.509,15.659-4.781,23.282a37.014,37.014,0,0,1,4.782-.468c2.626-.023,5.231-.064,7.837-.084,4.225-5.457,9.374-10.192,14.464-14.825a.617.617,0,0,1,1.039.43c.379,4.88-1.72,9.451-3.012,14.053a18.674,18.674,0,0,1,3.316-.083c2.141.572,5.2,1.386,5.1-1.5C5141.536,3128.888,5140.554,3129.261,5140.588,3127.227Z" transform="translate(-5089.958 -3090.671)" fill="#f5ded3"/>
          <path id="Tracé_12984" data-name="Tracé 12984" d="M5138.248,3094.732c1.853-1.544,3.785-2.985,5.742-4.4a25.586,25.586,0,0,0-6.717.1c-.635.114-1.3.223-1.985.328-2.692,3.971-5.3,8-8.07,11.917C5131.427,3101.345,5135.011,3097.43,5138.248,3094.732Z" transform="translate(-5112.584 -3090.159)" fill="#f5ded3"/>
        </g>
        <path id="Tracé_12985" data-name="Tracé 12985" d="M5200.442,2984.61s3.363,19.993,8.846,48.194c4.025,20.706,9.1,54.693,11.991,67.546,1.348,5.991,6.256,44.191,6.728,44.657s5.067-3.962,8.973-4.429,5.283.467,5.283-8.624c0-3.339-7.141-28.758-8.487-34.809s-4.231-67.9-4.377-73.941c-.229-9.556-.917-28.2-5.282-33.562S5200.442,2984.61,5200.442,2984.61Z" transform="translate(-128.292 -116.325)" fill="#e48b25"/>
        <path id="Tracé_12986" data-name="Tracé 12986" d="M5235.908,2987.154s17.03,1.291,20.082,18.254c1.311,7.286,8.959,33.718,12.175,41.253s4.1,13.3,5.02,20.976,2.869,12.643.125,17.348c-5,8.575-13.718,7.695-19.386,5.127-4.492-2.035-14.7-33.662-14.7-33.662Z" transform="translate(-149.829 -117.873)" fill="#e48b25"/>
        <path id="Tracé_12987" data-name="Tracé 12987" d="M5236.912,3145.887l-6.417,17.658-11.033-12.612-4-4.58-.356-.407,7.292-11.418.452.348,4.542,3.557Z" transform="translate(-137.196 -207.37)" fill="#ffa680"/>
        <g id="Groupe_61735" data-name="Groupe 61735" transform="translate(5037.249 2803.354)">
          <path id="Tracé_12988" data-name="Tracé 12988" d="M5117.568,2828.978a.37.37,0,0,1-.364-.306c-.007-.04-.716-3.96-2.2-5.215a28.96,28.96,0,0,1-3.354-3.574.37.37,0,0,1,.583-.458,28.616,28.616,0,0,0,3.25,3.465c1.688,1.429,2.42,5.481,2.45,5.653a.369.369,0,0,1-.3.429A.349.349,0,0,1,5117.568,2828.978Z" transform="translate(-5111.57 -2819.283)" fill="#fff"/>
        </g>
        <g id="Groupe_61736" data-name="Groupe 61736" transform="translate(5030.979 2811.259)">
          <path id="Tracé_12989" data-name="Tracé 12989" d="M5095.979,2852.129a.4.4,0,0,1-.075-.007.37.37,0,0,1-.288-.437c.026-.128.656-3.154,2.021-4.455a6.5,6.5,0,0,1,1.836-1.124,4.539,4.539,0,0,0,2.446-1.993,29.976,29.976,0,0,1,3.289-4.578.37.37,0,1,1,.558.488,29.827,29.827,0,0,0-3.192,4.438,5.264,5.264,0,0,1-2.789,2.317,5.847,5.847,0,0,0-1.637.989c-1.2,1.141-1.8,4.037-1.807,4.066A.371.371,0,0,1,5095.979,2852.129Z" transform="translate(-5095.608 -2839.409)" fill="#fff"/>
        </g>
        <g id="Groupe_61737" data-name="Groupe 61737" transform="translate(5028.186 2814.531)">
          <path id="Tracé_12990" data-name="Tracé 12990" d="M5088.864,2855.028h-.034a.369.369,0,0,1-.335-.4c.012-.147.342-3.626,2.1-5.127a7.9,7.9,0,0,1,2.847-1.746.371.371,0,0,1,.174.721,7.472,7.472,0,0,0-2.541,1.589c-1.535,1.307-1.844,4.6-1.847,4.629A.371.371,0,0,1,5088.864,2855.028Z" transform="translate(-5088.493 -2847.742)" fill="#fff"/>
        </g>
        <g id="Groupe_61738" data-name="Groupe 61738" transform="translate(5055.503 2797.69)">
          <path id="Tracé_12991" data-name="Tracé 12991" d="M5158.422,2806.912a.371.371,0,0,1,0-.741,21.892,21.892,0,0,0,5.061-.81c.561-.135,1.115-.269,1.662-.385a10.107,10.107,0,0,1,5.18.763.371.371,0,0,1-.295.68,9.532,9.532,0,0,0-4.731-.718c-.539.115-1.087.247-1.641.38A22.464,22.464,0,0,1,5158.422,2806.912Z" transform="translate(-5158.052 -2804.861)" fill="#fff"/>
        </g>
        <g id="Groupe_61739" data-name="Groupe 61739" transform="translate(5061.466 2801.977)">
          <path id="Tracé_12992" data-name="Tracé 12992" d="M5184.06,2819.654a.372.372,0,0,1-.247-.094c-2.65-2.371-5.979-3.341-10.175-2.964a.371.371,0,1,1-.066-.738c4.413-.4,7.924.634,10.735,3.15a.37.37,0,0,1-.247.646Z" transform="translate(-5173.234 -2815.775)" fill="#fff"/>
        </g>
        <g id="Groupe_61740" data-name="Groupe 61740" transform="translate(5043.639 2807.555)">
          <path id="Tracé_12993" data-name="Tracé 12993" d="M5150.184,2841.617h-.023a.369.369,0,0,1-.347-.391c.066-1.155-.061-3.264-1.678-4.418a9.055,9.055,0,0,0-2.442-1.092,11.14,11.14,0,0,1-2.271-.958,23.36,23.36,0,0,1-2.088-1.495,16.8,16.8,0,0,0-2.714-1.834c-3.511-1.762-10.229.332-10.3.353a.37.37,0,1,1-.223-.706c.287-.091,7.073-2.206,10.853-.309a17.568,17.568,0,0,1,2.835,1.909,22.617,22.617,0,0,0,2.02,1.448,10.335,10.335,0,0,0,2.122.888,9.769,9.769,0,0,1,2.637,1.192,5.535,5.535,0,0,1,1.986,5.064A.371.371,0,0,1,5150.184,2841.617Z" transform="translate(-5127.841 -2829.98)" fill="#fff"/>
        </g>
        <g id="Groupe_61741" data-name="Groupe 61741" transform="translate(5061.828 2810.763)">
          <path id="Tracé_12994" data-name="Tracé 12994" d="M5182.616,2843.983a.371.371,0,0,1-.312-.169,14.322,14.322,0,0,0-2.446-2.98c-1.457-1.288-3.548-1.64-5.393-1.95a.371.371,0,0,1,.124-.731c1.942.327,4.145.7,5.759,2.127a14.833,14.833,0,0,1,2.578,3.131.371.371,0,0,1-.31.572Z" transform="translate(-5174.157 -2838.148)" fill="#fff"/>
        </g>
        <path id="Tracé_12995" data-name="Tracé 12995" d="M5012.568,3348.637l-3.187-4.218c-.284-.376-.927-.007-.64.374l3.186,4.218C5012.211,3349.387,5012.854,3349.018,5012.568,3348.637Z" transform="translate(-11.832 -334.736)" fill="#f5ebe3"/>
        <path id="Tracé_12996" data-name="Tracé 12996" d="M5279.038,3115.08" transform="translate(-176.021 -195.559)" fill="#f5ebe3"/>
        <path id="Tracé_12997" data-name="Tracé 12997" d="M5271.069,3097.907c-.139-.455-.854-.261-.714.2" transform="translate(-170.737 -184.973)" fill="#f5ebe3"/>
        <path id="Tracé_12998" data-name="Tracé 12998" d="M5279.275,3246.907c.169.441.886.25.715-.2" transform="translate(-176.165 -275.495)" fill="#f5ebe3"/>
        <path id="Tracé_12999" data-name="Tracé 12999" d="M5286.256,3319.88c-.081-.469-.8-.27-.715.2" transform="translate(-179.966 -319.767)" fill="#f5ebe3"/>
        <path id="Tracé_13000" data-name="Tracé 13000" d="M5290.8,3330.507c.325.35.849-.174.524-.524" transform="translate(-183.166 -326.065)" fill="#f5ebe3"/>
        <path id="Tracé_13001" data-name="Tracé 13001" d="M5274.2,3353.869c-.108-.464-.823-.268-.714.2" transform="translate(-172.645 -340.409)" fill="#f5ebe3"/>
        <path id="Tracé_13002" data-name="Tracé 13002" d="M5279.945,3369.54c.255.4.9.031.64-.374" transform="translate(-176.571 -349.86)" fill="#f5ebe3"/>
        <g id="Groupe_61742" data-name="Groupe 61742" transform="translate(5007.564 2871.799)">
          <path id="Tracé_13003" data-name="Tracé 13003" d="M5046.283,3080.955a.37.37,0,0,1-.366-.319c-.045-.315-1.086-7.763.017-10.881.855-2.415.866-4.042.895-8.391.006-1.054.016-2.265.036-3.682a101.507,101.507,0,0,1,.966-10.167,201.734,201.734,0,0,0,1.943-27.416c-.09-24.364-13.317-25.783-13.451-25.794a.371.371,0,0,1,.061-.739c.14.012,14.037,1.444,14.13,26.531a202.445,202.445,0,0,1-1.948,27.51,100.912,100.912,0,0,0-.961,10.086c-.022,1.416-.029,2.625-.036,3.676-.03,4.439-.04,6.1-.937,8.634-1.042,2.948.007,10.454.018,10.53a.37.37,0,0,1-.314.419A.383.383,0,0,1,5046.283,3080.955Z" transform="translate(-5035.983 -2993.565)" fill="#382823"/>
        </g>
        <g id="Groupe_61743" data-name="Groupe 61743" transform="translate(4995.598 2975.152)">
          <path id="Tracé_13004" data-name="Tracé 13004" d="M5005.884,3264a.371.371,0,0,1-.1-.728l23.933-6.525a.37.37,0,1,1,.194.714l-23.933,6.526A.351.351,0,0,1,5005.884,3264Z" transform="translate(-5005.514 -3256.733)" fill="#382823"/>
        </g>
        <g id="Groupe_61744" data-name="Groupe 61744" transform="translate(4997.802 2982.789)">
          <path id="Tracé_13005" data-name="Tracé 13005" d="M5011.5,3277.431a.37.37,0,0,1-.068-.735l2.745-.51a.371.371,0,0,1,.136.729l-2.745.51A.349.349,0,0,1,5011.5,3277.431Z" transform="translate(-5011.126 -3276.18)" fill="#382823"/>
        </g>
        <g id="Groupe_61745" data-name="Groupe 61745" transform="translate(5023.188 2867.91)">
          <path id="Tracé_13006" data-name="Tracé 13006" d="M5078.126,3022.352a.371.371,0,0,1-.368-.334s-.742-7.409-1.6-15.559c-.858-8.087-.01-22.3,0-22.448a.37.37,0,1,1,.739.045c-.008.142-.852,14.3,0,22.325.865,8.152,1.606,15.563,1.606,15.563a.37.37,0,0,1-.332.405Z" transform="translate(-5075.77 -2983.663)" fill="#382823"/>
        </g>
        <g id="Groupe_61746" data-name="Groupe 61746" transform="translate(5080.009 2868.91)">
          <path id="Tracé_13007" data-name="Tracé 13007" d="M5221.662,3026.244h-.016a.371.371,0,0,1-.355-.384c0-.072.277-7.277.765-16.905.487-9.585-1.58-22.188-1.6-22.314a.37.37,0,0,1,.731-.121c.021.127,2.1,12.807,1.61,22.472-.488,9.625-.763,16.824-.766,16.9A.37.37,0,0,1,5221.662,3026.244Z" transform="translate(-5220.451 -2986.209)" fill="#382823"/>
        </g>
        <g id="Groupe_61747" data-name="Groupe 61747" transform="translate(5092.619 2872.883)">
          <path id="Tracé_13008" data-name="Tracé 13008" d="M5262.182,3059.735a.371.371,0,0,1-.359-.28c-.094-.369-2.3-9.1-2.534-13.657-.263-5.085-1.154-14.407-4.161-19.712-3.165-5.583-2.523-28.432-2.5-29.4a.4.4,0,0,1,.381-.359.371.371,0,0,1,.359.381c-.007.236-.663,23.611,2.4,29.015,3.081,5.438,3.989,14.889,4.256,20.039.233,4.489,2.489,13.423,2.513,13.513a.372.372,0,0,1-.268.45A.4.4,0,0,1,5262.182,3059.735Z" transform="translate(-5252.561 -2996.325)" fill="#382823"/>
        </g>
        <g id="Groupe_61748" data-name="Groupe 61748" transform="translate(5100.162 2936.882)">
          <path id="Tracé_13009" data-name="Tracé 13009" d="M5289.527,3164.551a.366.366,0,0,1-.226-.077,28.882,28.882,0,0,0-6.757-3.63c-3.88-1.447-10.288-.514-10.352-.5a.371.371,0,1,1-.109-.733c.271-.041,6.663-.97,10.721.542a29.083,29.083,0,0,1,6.95,3.738.37.37,0,0,1-.227.664Z" transform="translate(-5271.766 -3159.287)" fill="#382823"/>
        </g>
        <g id="Groupe_61749" data-name="Groupe 61749" transform="translate(5092.623 2957.604)">
          <path id="Tracé_13010" data-name="Tracé 13010" d="M5267.759,3227.627a.351.351,0,0,1-.117-.019c-.37-.123-9.063-3.06-10.719-6.054a26.991,26.991,0,0,1-2.367-6.14l-1.919-2.783a.37.37,0,0,1,.61-.421l2.014,2.968a26.724,26.724,0,0,0,2.31,6.017c1.518,2.744,10.218,5.682,10.306,5.711a.37.37,0,0,1-.118.722Z" transform="translate(-5252.572 -3212.05)" fill="#382823"/>
        </g>
        <g id="Groupe_61750" data-name="Groupe 61750" transform="translate(5094.396 2955.376)">
          <path id="Tracé_13011" data-name="Tracé 13011" d="M5257.457,3209.348a.375.375,0,0,1-.113-.018.37.37,0,0,1-.24-.466l.716-2.227a.37.37,0,0,1,.706.226l-.716,2.227A.371.371,0,0,1,5257.457,3209.348Z" transform="translate(-5257.086 -3206.38)" fill="#382823"/>
        </g>
        <g id="Groupe_61751" data-name="Groupe 61751" transform="translate(5096.063 2938.323)">
          <path id="Tracé_13012" data-name="Tracé 13012" d="M5261.7,3185.008a.363.363,0,0,1-.127-.023.369.369,0,0,1-.221-.475l7.78-21.31a.37.37,0,1,1,.7.254l-7.78,21.31A.37.37,0,0,1,5261.7,3185.008Z" transform="translate(-5261.332 -3162.957)" fill="#382823"/>
        </g>
        <path id="Tracé_13013" data-name="Tracé 13013" d="M5185.8,2979.807s-4.175,41.549-3.421,54.407c1.359,23.151,18.678,42.075,25.926,50.366s15.618,12.335,15.879,12.15a12.718,12.718,0,0,0,0-5.341c-.479-1.2-10.124-8.318-15.3-14.079-4.163-4.634-19.467-22.126-21.166-43.446-1.006-12.619,5.114-51.247,3.183-52.728S5185.8,2979.807,5185.8,2979.807Z" transform="translate(-117.264 -113.409)" fill="#4d3932"/>
        <g id="Groupe_61755" data-name="Groupe 61755" transform="translate(5061.669 2914.92)">
          <path id="Tracé_13014" data-name="Tracé 13014" d="M5197.284,3115.6s-5.689-9.265-8.364-11.187c-3.217-2.312-10.813-.233-13.043.815-1.717.808-.99,2.444-.615,4.218a3.552,3.552,0,0,0-1.069,1.114,2.861,2.861,0,0,0-.4,1.882,2.632,2.632,0,0,0,.973,1.639c-.015.055-.03.11-.046.163a3.791,3.791,0,0,0-.971,2.608,1.536,1.536,0,0,0,1.134,1.538,2.181,2.181,0,0,0-.113,2.364,4.87,4.87,0,0,0,1.928,1.679,5.553,5.553,0,0,0,1.183.858c3.84,2.107,11.483,3.729,11.483,3.729l10.033.116Z" transform="translate(-5173.751 -3103.365)" fill="#ffa680"/>
          <g id="Groupe_61752" data-name="Groupe 61752" transform="translate(1.754 5.165)">
            <path id="Tracé_13015" data-name="Tracé 13015" d="M5178.589,3117.958a.37.37,0,0,1-.108-.724,16.747,16.747,0,0,1,3.787-.716h2.174a.37.37,0,0,1,0,.741h-2.174a16.4,16.4,0,0,0-3.571.683A.376.376,0,0,1,5178.589,3117.958Z" transform="translate(-5178.219 -3116.518)" fill="#f07f4f"/>
          </g>
          <g id="Groupe_61753" data-name="Groupe 61753" transform="translate(1.42 10.086)">
            <path id="Tracé_13016" data-name="Tracé 13016" d="M5177.738,3130.229a.371.371,0,0,1-.057-.737,27.648,27.648,0,0,1,4.961-.408l1.171.175a.371.371,0,1,1-.109.733l-1.171-.175a26.188,26.188,0,0,0-4.737.407A.32.32,0,0,1,5177.738,3130.229Z" transform="translate(-5177.368 -3129.048)" fill="#f07f4f"/>
          </g>
          <g id="Groupe_61754" data-name="Groupe 61754" transform="translate(1.42 14.488)">
            <path id="Tracé_13017" data-name="Tracé 13017" d="M5182.812,3141h-5.073a.37.37,0,0,1,0-.741h5.073a.37.37,0,0,1,0,.741Z" transform="translate(-5177.368 -3140.256)" fill="#f07f4f"/>
          </g>
        </g>
        <g id="Groupe_61756" data-name="Groupe 61756" transform="translate(5032.888 2870.785)">
          <path id="Tracé_13018" data-name="Tracé 13018" d="M5118.775,3005.442c-1.937,0-15.483-11.5-18.181-13.808a.371.371,0,1,1,.482-.563c7.727,6.609,16.553,13.63,17.7,13.63h0c1.289-.007,9.619-5.72,14.566-9.319a.37.37,0,1,1,.436.6c-1.33.967-13.046,9.449-15,9.46Z" transform="translate(-5100.465 -2990.983)" fill="#f5ebe3"/>
        </g>
        <g id="Groupe_61757" data-name="Groupe 61757" transform="translate(5077.538 2968.865)">
          <path id="Tracé_13019" data-name="Tracé 13019" d="M5223.938,3273.321a.373.373,0,0,1-.36-.279,86,86,0,0,0-4.384-12.209c-2.95-6.6-5.01-19.549-5.03-19.679a.371.371,0,1,1,.732-.115c.021.129,2.064,12.979,4.975,19.492a86.954,86.954,0,0,1,4.426,12.327.37.37,0,0,1-.268.451A.346.346,0,0,1,5223.938,3273.321Z" transform="translate(-5214.16 -3240.726)" fill="#f5ebe3"/>
        </g>
        <g id="Groupe_61758" data-name="Groupe 61758" transform="translate(5077.538 2986.563)">
          <path id="Tracé_13020" data-name="Tracé 13020" d="M5217,3301.8a.37.37,0,0,1-.365-.311l-2.471-15.268a.371.371,0,0,1,.732-.118l2.47,15.267a.37.37,0,0,1-.307.425A.377.377,0,0,1,5217,3301.8Z" transform="translate(-5214.159 -3285.791)" fill="#f5ebe3"/>
        </g>
        <g id="Groupe_61759" data-name="Groupe 61759" transform="translate(5008.75 3020.958)">
          <path id="Tracé_13021" data-name="Tracé 13021" d="M5039.375,3376.7a.37.37,0,0,1-.25-.644l2.841-2.594a.371.371,0,0,1,.5.547l-2.841,2.593A.368.368,0,0,1,5039.375,3376.7Z" transform="translate(-5039.004 -3373.37)" fill="#382823"/>
        </g>
        <g id="Groupe_61760" data-name="Groupe 61760" transform="translate(5027.769 3005.767)">
          <path id="Tracé_13022" data-name="Tracé 13022" d="M5087.8,3337.408a.37.37,0,0,1-.253-.64l2.1-1.976a.371.371,0,1,1,.508.54l-2.1,1.976A.374.374,0,0,1,5087.8,3337.408Z" transform="translate(-5087.432 -3334.691)" fill="#382823"/>
        </g>
        <g id="Groupe_61761" data-name="Groupe 61761" transform="translate(5053.892 3005.8)">
          <path id="Tracé_13023" data-name="Tracé 13023" d="M5154.64,3384.079a.37.37,0,0,1-.37-.353c-.007-.156-.718-15.683,0-24.131.715-8.4-.312-24.268-.322-24.427a.37.37,0,1,1,.739-.048c.011.16,1.042,16.087.322,24.539-.715,8.4-.006,23.878,0,24.033a.37.37,0,0,1-.353.388Z" transform="translate(-5153.948 -3334.773)" fill="#382823"/>
        </g>
        <g id="Groupe_61762" data-name="Groupe 61762" transform="translate(5054.47 3005.798)">
          <path id="Tracé_13024" data-name="Tracé 13024" d="M5156.473,3365.018c-.4,0-.67-.02-.713-.023a.37.37,0,0,1-.339-.4.378.378,0,0,1,.4-.339c.043,0,4.352.324,5.868-1.878,1.165-1.694,1.066-17.209.716-27.225a.368.368,0,0,1,.356-.382.359.359,0,0,1,.384.356c.089,2.576.832,25.231-.846,27.67C5160.934,3364.779,5157.871,3365.018,5156.473,3365.018Z" transform="translate(-5155.419 -3334.769)" fill="#382823"/>
        </g>
        <path id="Tracé_13025" data-name="Tracé 13025" d="M5227.941,3138.972l-7.929,12.5-4-4.58,7.387-11.478Z" transform="translate(-137.746 -207.908)" fill="#875549"/>
        <circle id="Ellipse_2430" data-name="Ellipse 2430" cx="4.894" cy="4.894" r="4.894" transform="translate(5078.752 2938.045) rotate(-76.717)" fill="#f5ebe3"/>
      </g>
    </g>
  </g>
</svg>
